<?xml version="1.0" encoding="iso-8859-1"?>
<!-- Generator: Adobe Illustrator 19.0.0, SVG Export Plug-In . SVG Version: 6.00 Build 0)  -->
<svg version="1.1" id="Layer_1" xmlns="http://www.w3.org/2000/svg" xmlns:xlink="http://www.w3.org/1999/xlink" x="0px" y="0px"
	 viewBox="0 0 512 512" style="enable-background:new 0 0 512 512;" xml:space="preserve">
<g>
	<g>
		<path d="M495.304,478.609H382.179C459.622,434.538,512,351.297,512,256C512,114.843,397.163,0,256,0S0,114.843,0,256
			c0,138.664,110.837,251.853,248.564,255.811c0.622,0.07,1.23,0.189,1.871,0.189h244.87c9.217,0,16.696-7.473,16.696-16.696
			C512,486.082,504.521,478.609,495.304,478.609z M351.446,143.059c23.891-13.798,54.609-5.582,68.424,18.332v0.006
			c13.804,23.918,5.576,54.609-18.337,68.413c-23.886,13.798-54.581,5.653-68.413-18.337
			C319.304,187.571,327.533,156.875,351.446,143.059z M160.554,368.941c-23.877,13.788-54.59,5.614-68.424-18.332
			c-13.804-23.924-5.576-54.614,18.337-68.419c23.938-13.827,54.603-5.618,68.413,18.337
			C192.684,324.434,184.467,355.125,160.554,368.941z M178.881,211.473c-13.806,23.946-44.469,32.168-68.413,18.337
			c-23.913-13.804-32.141-44.495-18.337-68.413c13.794-23.918,44.49-32.136,68.424-18.342
			C184.467,156.875,192.684,187.566,178.881,211.473z M256,445.217c-27.619,0-50.087-22.468-50.087-50.087
			s22.468-50.087,50.087-50.087s50.087,22.468,50.087,50.087S283.619,445.217,256,445.217z M256,166.957
			c-27.619,0-50.087-22.468-50.087-50.087c0-27.619,22.468-50.087,50.087-50.087s50.087,22.468,50.087,50.087
			C306.087,144.489,283.619,166.957,256,166.957z M351.446,368.946c-23.913-13.821-32.141-44.517-18.326-68.424
			c13.792-23.911,44.423-32.176,68.413-18.332c23.913,13.804,32.141,44.495,18.337,68.413v0.006
			C406.067,374.501,375.399,382.758,351.446,368.946z"/>
	</g>
</g>
<g>
</g>
<g>
</g>
<g>
</g>
<g>
</g>
<g>
</g>
<g>
</g>
<g>
</g>
<g>
</g>
<g>
</g>
<g>
</g>
<g>
</g>
<g>
</g>
<g>
</g>
<g>
</g>
<g>
</g>
</svg>
